<svg width="537" height="77" viewBox="0 0 537 77" fill="none" xmlns="http://www.w3.org/2000/svg">
<path d="M53.4341 34.7905C53.3055 39.0337 52.7783 42.9297 51.8525 46.4785C50.9525 50.0016 49.6538 53.1776 47.9565 56.0063C45.8735 59.478 43.3405 62.0882 40.3574 63.8369C37.3743 65.5856 33.9412 66.46 30.0581 66.46C25.8407 66.46 21.9575 65.547 18.4087 63.7212C14.8599 61.8953 11.6711 59.1566 8.84229 55.5049C6.19352 52.1104 4.20052 48.4844 2.86328 44.627C1.55176 40.7695 0.895996 36.6549 0.895996 32.2832C0.895996 28.0915 1.47461 24.1955 2.63184 20.5952C3.78906 16.995 5.57633 13.729 7.99365 10.7974C10.5653 7.65999 13.5226 5.30697 16.8657 3.73828C20.2088 2.14388 23.9377 1.34668 28.0522 1.34668C30.0581 1.34668 31.9997 1.6167 33.877 2.15674C35.7542 2.69678 37.5415 3.51969 39.2388 4.62549C40.9103 5.70557 42.4019 6.96566 43.7134 8.40576C45.0249 9.84587 46.1436 11.466 47.0693 13.2661L44.4463 13.9219C43.5977 13.0218 42.569 12.3532 41.3604 11.916C40.1517 11.4788 38.7244 11.2603 37.0786 11.2603C33.6584 11.2603 30.4824 12.2118 27.5508 14.1147C24.6449 15.992 22.009 18.8208 19.6431 22.6011C17.5601 25.9185 15.9914 29.3258 14.937 32.8232C13.9084 36.2949 13.394 39.8566 13.394 43.5083C13.394 46.1571 13.7155 48.6001 14.3584 50.8374C15.027 53.049 16.0299 55.0291 17.3672 56.7778C18.8587 58.7323 20.6203 60.1981 22.6519 61.1753C24.6834 62.1525 26.985 62.6411 29.5566 62.6411C31.5882 62.6411 33.4141 62.1139 35.0342 61.0596C36.68 59.9795 38.133 58.3722 39.3931 56.2378C40.396 54.5148 41.1932 52.6632 41.7847 50.6831C42.3761 48.6772 42.7362 46.5428 42.8647 44.2798L25.1592 45.8613L24.0791 40.2295L40.5889 38.5322L26.5093 35.0991L26.9336 28.8887L53.4341 34.7905ZM22.999 12.0703C22.999 11.1702 22.7676 10.4888 22.3047 10.0259C21.8418 9.56299 21.1475 9.33154 20.2217 9.33154C19.3216 9.33154 18.6401 9.56299 18.1772 10.0259C17.7144 10.4888 17.4829 11.1702 17.4829 12.0703C17.4829 12.7904 17.7529 13.4333 18.293 13.999C18.833 14.5648 19.4759 14.8477 20.2217 14.8477C21.1475 14.8477 21.8418 14.6162 22.3047 14.1533C22.7676 13.6904 22.999 12.9961 22.999 12.0703ZM15.9014 17.8564C15.9014 16.9049 15.5542 16.082 14.8599 15.3877C14.1655 14.6676 13.3298 14.3076 12.3525 14.3076C11.3753 14.3076 10.5396 14.6676 9.84521 15.3877C9.1766 16.082 8.84229 16.9049 8.84229 17.8564C8.84229 18.8337 9.1766 19.6823 9.84521 20.4023C10.5396 21.0967 11.3753 21.4438 12.3525 21.4438C13.3298 21.4438 14.1655 21.0967 14.8599 20.4023C15.5542 19.6823 15.9014 18.8337 15.9014 17.8564ZM11.4653 27.0371C11.4653 26.1113 11.2339 25.417 10.771 24.9541C10.3338 24.4912 9.65234 24.2598 8.72656 24.2598C7.80078 24.2598 7.10645 24.4912 6.64355 24.9541C6.18066 25.417 5.94922 26.1113 5.94922 27.0371C5.94922 27.7572 6.21924 28.4001 6.75928 28.9658C7.32503 29.5316 7.98079 29.8145 8.72656 29.8145C9.47233 29.8145 10.1152 29.5316 10.6553 28.9658C11.1953 28.4001 11.4653 27.7572 11.4653 27.0371ZM97.7944 63.0269L97.7559 65.1099C93.7699 66.91 89.8224 68.2472 85.9136 69.1216C82.0304 70.0216 78.1859 70.4717 74.3799 70.4717C72.2712 70.4717 70.3424 70.266 68.5938 69.8545C66.8451 69.443 65.2764 68.8387 63.8877 68.0415C62.2419 67.09 60.9946 65.8685 60.146 64.377C59.3231 62.8854 58.9116 61.1496 58.9116 59.1694C58.9116 55.672 60.6603 52.5475 64.1577 49.7959C67.6808 47.0443 72.9269 44.6655 79.896 42.6597C79.3302 41.0138 78.3659 39.7666 77.0029 38.918C75.6657 38.0693 73.9556 37.645 71.8726 37.645C69.6353 37.645 67.6037 38.1079 65.7778 39.0337C63.952 39.9338 62.3319 41.271 60.9175 43.0454L58.873 41.0781C61.0332 37.7607 63.7077 35.2663 66.8965 33.5947C70.0853 31.8975 73.8013 31.0488 78.0444 31.0488C81.4904 31.0488 84.512 32.0132 87.1094 33.9419C89.7324 35.8449 91.944 38.7122 93.7441 42.5439C95.1585 45.5527 96.2 48.7673 96.8687 52.1875C97.563 55.582 97.8716 59.1951 97.7944 63.0269ZM91.8154 49.603C91.8154 48.6772 91.584 47.9829 91.1211 47.52C90.6839 47.0571 90.0024 46.8257 89.0767 46.8257C88.1509 46.8257 87.4437 47.0571 86.9551 47.52C86.4922 47.9829 86.2607 48.6772 86.2607 49.603C86.2607 50.5288 86.4922 51.2231 86.9551 51.686C87.4437 52.1232 88.1509 52.3418 89.0767 52.3418C90.0024 52.3418 90.6839 52.1232 91.1211 51.686C91.584 51.2231 91.8154 50.5288 91.8154 49.603ZM82.6348 60.1724C82.6348 57.8322 82.519 55.5177 82.2876 53.229C82.0819 50.9403 81.7476 48.6772 81.2847 46.4399C78.8674 47.1343 76.6815 47.88 74.7271 48.6772C72.7983 49.4487 71.1139 50.2716 69.6738 51.146L73.6084 67.0771C75.6657 67.0771 77.4401 66.9614 78.9316 66.73C80.4232 66.4985 81.619 66.1257 82.519 65.6113C82.5705 64.6855 82.5962 63.7726 82.5962 62.8726C82.6219 61.9725 82.6348 61.0724 82.6348 60.1724ZM93.397 60.0181C93.397 59.0409 93.0498 58.2051 92.3555 57.5107C91.6868 56.8164 90.8511 56.4692 89.8481 56.4692C88.8709 56.4692 88.0223 56.8035 87.3022 57.4722C86.6079 58.1408 86.2607 58.9894 86.2607 60.0181C86.2607 61.021 86.6079 61.8568 87.3022 62.5254C88.0223 63.194 88.8709 63.5283 89.8481 63.5283C90.8511 63.5283 91.6868 63.194 92.3555 62.5254C93.0498 61.8311 93.397 60.9953 93.397 60.0181ZM160.902 66.8071L145.164 68.5815L145.472 49.1787C145.524 46.4271 145.241 44.3569 144.624 42.9683C144.032 41.5796 143.132 40.8853 141.923 40.8853C141.178 40.8853 140.419 41.3481 139.647 42.2739C138.876 43.174 138.079 44.5369 137.256 46.3628C136.69 47.5972 136.201 48.8444 135.79 50.1045C135.404 51.3646 135.057 52.6375 134.749 53.9233C134.62 52.8433 134.479 51.7632 134.324 50.6831C134.196 49.5773 134.067 48.4844 133.938 47.4043C133.707 46.0413 133.411 44.8584 133.051 43.8555C132.717 42.8268 132.306 41.9653 131.817 41.271C131.174 40.3709 130.39 39.6895 129.464 39.2266C128.538 38.7637 127.458 38.5322 126.224 38.5322C124.449 38.5322 122.855 39.2137 121.44 40.5767C120.026 41.9396 118.805 43.984 117.776 46.71L118.162 67.1929L104.236 66.2285L108.942 28.8887L117.004 30.1616L117.39 38.0693C118.933 36.1149 120.553 34.6491 122.25 33.6719C123.973 32.6689 125.774 32.1675 127.651 32.1675C129.425 32.1675 131.007 32.5146 132.396 33.209C133.81 33.9033 135.006 34.9577 135.983 36.3721C137.423 34.8034 138.876 33.6333 140.342 32.8618C141.808 32.0646 143.273 31.666 144.739 31.666C146.385 31.666 147.902 32.116 149.291 33.0161C150.68 33.8905 151.953 35.202 153.11 36.9507C153.984 38.2622 154.73 39.728 155.347 41.3481C155.99 42.9683 156.53 44.7298 156.967 46.6328L152.068 48.0215L152.647 51.0303L157.662 49.9888L158.047 53.3062L153.148 54.1162L153.843 57.4336L159.012 56.585L159.629 59.9409L154.113 60.2109L154.614 63.7212L160.13 63.1426L160.902 66.8071ZM139.57 61.0981C139.57 62.5125 139.082 63.7083 138.104 64.6855C137.153 65.6628 135.957 66.1514 134.517 66.1514C133.103 66.1514 131.894 65.6628 130.891 64.6855C129.914 63.7083 129.425 62.5125 129.425 61.0981C129.425 59.6838 129.914 58.5008 130.891 57.5493C131.894 56.5721 133.103 56.0835 134.517 56.0835C135.957 56.0835 137.153 56.5721 138.104 57.5493C139.082 58.5008 139.57 59.6838 139.57 61.0981ZM208.58 64.0684C207.937 64.7113 207.358 65.2899 206.844 65.8042C206.329 66.2928 205.879 66.6914 205.494 67L208.387 71.3203L205.687 72.9019L202.755 69.2759C201.726 69.8931 200.633 70.4074 199.476 70.8188C198.319 71.256 197.084 71.5518 195.773 71.7061L195.696 76.2578L192.224 76.0264L192.533 71.8218C191.35 71.8218 190.09 71.6932 188.752 71.436C187.415 71.2046 186.014 70.8446 184.548 70.356L182.388 74.9849L178.916 73.0947L181.269 68.7744C180.009 68.0801 178.852 67.2829 177.797 66.3828C176.769 65.457 175.856 64.4155 175.059 63.2583L170.931 65.8813L169.195 63.1426L173.708 60.7896C173.117 59.5552 172.654 58.2951 172.32 57.0093C171.986 55.6978 171.767 54.3605 171.664 52.9976L167.537 54.0391L166.341 50.6445L171.664 49.4487C171.793 48.0086 172.011 46.71 172.32 45.5527C172.628 44.3955 173.027 43.3669 173.516 42.4668L169.774 40.2295L171.548 37.2979L175.213 39.8438C175.856 39.0465 176.55 38.3265 177.296 37.6836C178.067 37.0407 178.877 36.4749 179.726 35.9863L176.563 31.396L180.035 29.6987L182.581 34.5977C183.403 34.3405 184.149 34.1348 184.818 33.9805C185.486 33.8262 186.078 33.7104 186.592 33.6333L187.634 28.5801L190.373 29.4287L189.678 33.4404C190.707 33.4404 191.684 33.569 192.61 33.8262C193.536 34.0833 194.423 34.4691 195.271 34.9834L199.09 31.2031L201.25 33.0161L197.625 36.9507C198.19 37.4907 198.717 38.1465 199.206 38.918C199.695 39.6637 200.132 40.4995 200.518 41.4253L205.031 39.9209L205.802 42.7754L201.443 44.2798C201.649 44.8455 201.816 45.4627 201.945 46.1313C202.099 46.8 202.241 47.52 202.369 48.2915L184.432 51.416V51.8403C184.432 53.7176 184.625 55.492 185.011 57.1636C185.422 58.8094 186.039 60.3781 186.862 61.8696C187.84 63.644 189.01 64.9813 190.373 65.8813C191.736 66.7557 193.266 67.1929 194.963 67.1929C196.712 67.1929 198.55 66.73 200.479 65.8042C202.408 64.8784 204.452 63.464 206.612 61.561L208.58 64.0684ZM192.803 45.1284C192.7 43.9969 192.276 43.1483 191.53 42.5825C190.81 42.0168 189.768 41.7339 188.405 41.7339C186.734 41.7339 185.178 42.2354 183.738 43.2383C182.298 44.2412 181.32 45.527 180.806 47.0957L192.803 45.1284ZM263.355 15.0405C263.355 16.3263 262.879 17.4321 261.928 18.3579C260.976 19.2837 259.858 19.7466 258.572 19.7466C257.26 19.7466 256.116 19.2837 255.139 18.3579C254.187 17.4321 253.711 16.3263 253.711 15.0405C253.711 13.7033 254.174 12.5589 255.1 11.6074C256.052 10.6559 257.209 10.1802 258.572 10.1802C259.883 10.1802 261.002 10.6559 261.928 11.6074C262.879 12.5589 263.355 13.7033 263.355 15.0405ZM279.055 65.8813L265.631 66.73L263.548 37.1436L249.854 38.3394L250.973 68.9673L236.122 66.6143L239.053 1.34668L247.694 0.459473L249.198 23.4883L268.794 24.3755L268.177 0.960938L278.322 1.15381L276.354 21.7524C276.02 25.1984 275.776 27.7829 275.622 29.5059C275.467 31.2031 275.39 32.0518 275.39 32.0518C275.39 32.9518 275.416 33.8776 275.467 34.8291C275.544 35.7549 275.66 36.7192 275.814 37.7222C276.072 39.4451 276.252 40.7824 276.354 41.7339C276.483 42.6597 276.56 43.1997 276.586 43.354L279.055 65.8813ZM269.295 30.9331L269.103 28.3872L249.391 27.0371L249.584 33.1318L269.295 30.9331ZM330.011 46.3242L325.189 47.6357C325.267 48.1243 325.331 48.6515 325.382 49.2173C325.434 49.7573 325.459 50.3359 325.459 50.9531C325.459 51.8789 325.395 52.7918 325.267 53.6919C325.138 54.592 324.945 55.492 324.688 56.3921L328.545 58.1665L326.578 61.561L323.531 59.4009C322.554 61.4839 321.293 63.2454 319.75 64.6855C318.208 66.1257 316.382 67.27 314.273 68.1187L315.353 72.709L311.804 73.5962L311.11 69.083C310.338 69.2116 309.657 69.3016 309.065 69.353C308.5 69.4302 308.011 69.4688 307.6 69.4688C306.057 69.4688 304.539 69.2759 303.048 68.8901C301.582 68.5044 300.168 67.9001 298.805 67.0771L295.95 71.5132L292.903 69.7388L296.143 65.1099C295.114 64.2612 294.201 63.3097 293.404 62.2554C292.633 61.201 291.977 60.0566 291.437 58.8223L286.615 60.3267L285.921 57.0479L290.318 56.0835C290.087 55.132 289.92 54.2191 289.817 53.3447C289.714 52.4704 289.663 51.6732 289.663 50.9531C289.663 50.1559 289.701 49.3844 289.778 48.6387C289.881 47.8672 290.035 47.1343 290.241 46.4399L285.921 45.0513L286.808 41.7339L291.244 43.5854C291.861 42.0168 292.659 40.5895 293.636 39.3037C294.639 38.0179 295.809 36.8864 297.146 35.9092L294.562 31.8589L297.532 29.8145L300.078 34.1348C301.261 33.569 302.469 33.1447 303.704 32.8618C304.964 32.5789 306.262 32.4375 307.6 32.4375C308.937 32.4375 310.197 32.5789 311.38 32.8618C312.589 33.119 313.746 33.5047 314.852 34.019L316.896 30.3545L319.905 32.0518L317.822 35.7935C319.339 36.8993 320.638 38.1722 321.718 39.6123C322.798 41.0524 323.698 42.6725 324.418 44.4727L329.124 42.3896L330.011 46.3242ZM314.659 50.9531C314.659 49.333 314.504 47.8415 314.196 46.4785C313.887 45.1156 313.386 43.8683 312.691 42.7368C311.868 41.3739 310.891 40.3581 309.76 39.6895C308.628 38.9951 307.304 38.6479 305.787 38.6479C304.321 38.6479 303.009 38.9951 301.852 39.6895C300.695 40.3581 299.718 41.3867 298.92 42.7754C298.252 43.9069 297.75 45.167 297.416 46.5557C297.107 47.9186 296.953 49.3844 296.953 50.9531C296.953 52.6247 297.107 54.1548 297.416 55.5435C297.75 56.9064 298.239 58.1408 298.882 59.2466C299.679 60.6353 300.656 61.6639 301.813 62.3325C302.971 63.0011 304.295 63.3354 305.787 63.3354C307.33 63.3354 308.68 63.0011 309.837 62.3325C310.994 61.6639 311.958 60.6353 312.73 59.2466C313.347 58.1408 313.823 56.9064 314.157 55.5435C314.492 54.1548 314.659 52.6247 314.659 50.9531ZM373.369 37.1436L369.627 38.5322C369.627 38.738 369.64 39.0465 369.666 39.458C369.691 39.8695 369.704 40.1909 369.704 40.4224C369.704 41.091 369.627 41.721 369.473 42.3125C369.344 42.8783 369.138 43.4054 368.855 43.894L372.173 46.2471L370.09 48.2915L367.158 45.9385C366.747 46.3242 366.271 46.6842 365.731 47.0186C365.217 47.3529 364.638 47.6872 363.995 48.0215L362.028 45.3213C362.439 44.807 362.735 44.2926 362.915 43.7783C363.121 43.264 363.224 42.7497 363.224 42.2354C363.224 41.181 362.864 40.3838 362.144 39.8438C361.424 39.3037 360.343 39.0337 358.903 39.0337C357.309 39.0337 355.612 39.8952 353.812 41.6182C352.011 43.3154 350.108 45.8613 348.103 49.2559L348.681 70.4717L335.45 68.5044L341.468 32.1675L347.562 30.9331L347.871 42.3125C348.694 41.1553 349.491 40.1266 350.263 39.2266C351.034 38.3265 351.78 37.5422 352.5 36.8735L350.841 33.1318L353.464 31.7817L354.853 34.9834C355.753 34.4434 356.666 33.9933 357.592 33.6333C358.543 33.2476 359.508 32.9775 360.485 32.8232L360.601 28.9658L363.417 29.2358L362.838 32.7461C364.278 32.8232 365.5 33.1576 366.502 33.749C367.531 34.3148 368.315 35.1248 368.855 36.1792L372.366 34.3276L373.369 37.1436ZM345.672 52.9204C345.672 52.1232 345.467 51.5189 345.055 51.1074C344.644 50.6702 344.001 50.4517 343.126 50.4517C342.329 50.4517 341.725 50.6702 341.313 51.1074C340.902 51.5189 340.696 52.1232 340.696 52.9204C340.696 53.7433 340.902 54.3605 341.313 54.772C341.725 55.1577 342.329 55.3506 343.126 55.3506C344.001 55.3506 344.644 55.1577 345.055 54.772C345.467 54.3605 345.672 53.7433 345.672 52.9204ZM345.479 62.3711C345.479 61.471 345.171 60.7124 344.554 60.0952C343.962 59.4523 343.229 59.1309 342.355 59.1309C341.506 59.1309 340.761 59.4523 340.118 60.0952C339.5 60.7124 339.192 61.471 339.192 62.3711C339.192 63.4255 339.449 64.2098 339.963 64.7241C340.503 65.2384 341.301 65.4956 342.355 65.4956C343.435 65.4956 344.219 65.2384 344.708 64.7241C345.222 64.2098 345.479 63.4255 345.479 62.3711ZM393.89 22.4854L392.926 24.8384L389.57 23.1025C389.21 23.5654 388.811 23.9383 388.374 24.2212C387.937 24.5041 387.448 24.7098 386.908 24.8384L387.68 28.0015L385.057 28.3872L384.401 25.0698C383.989 24.9927 383.578 24.8512 383.167 24.6455C382.781 24.4141 382.408 24.1569 382.048 23.874L379.502 26.2271L377.728 24.1826L380.698 22.0225C380.441 21.5339 380.286 21.0195 380.235 20.4795C380.209 19.9395 380.261 19.3608 380.389 18.7437L376.956 16.5835L378.229 14.5005L381.392 16.6606C381.701 16.2749 382.048 15.9535 382.434 15.6963C382.845 15.4134 383.308 15.1948 383.822 15.0405L383.167 10.4888H385.635L385.79 14.7319C386.355 14.8091 386.87 14.9377 387.333 15.1177C387.795 15.2977 388.233 15.5291 388.644 15.812L391.344 13.6519L393.119 15.4263L390.033 17.5093C390.238 17.7922 390.38 18.2293 390.457 18.8208C390.534 19.4123 390.56 20.158 390.534 21.0581L393.89 22.4854ZM392.579 71.436L376.339 69.353L382.356 31.7817H389.57L392.579 71.436ZM387.988 51.5317C387.988 50.6317 387.757 49.9502 387.294 49.4873C386.857 49.0244 386.175 48.793 385.25 48.793C384.298 48.793 383.591 49.0244 383.128 49.4873C382.665 49.9502 382.434 50.6317 382.434 51.5317C382.434 52.4575 382.665 53.1519 383.128 53.6147C383.591 54.0776 384.298 54.3091 385.25 54.3091C386.175 54.3091 386.857 54.0776 387.294 53.6147C387.757 53.1519 387.988 52.4575 387.988 51.5317ZM387.988 61.9854C387.988 61.0081 387.641 60.1724 386.947 59.478C386.252 58.7837 385.404 58.4365 384.401 58.4365C383.449 58.4365 382.626 58.7837 381.932 59.478C381.238 60.1724 380.891 61.0081 380.891 61.9854C380.891 62.9626 381.238 63.7983 381.932 64.4927C382.626 65.1613 383.449 65.4956 384.401 65.4956C385.404 65.4956 386.252 65.1613 386.947 64.4927C387.641 63.7983 387.988 62.9626 387.988 61.9854ZM443.419 38.2622C443.419 39.188 443.188 39.8823 442.725 40.3452C442.288 40.7824 441.606 41.001 440.681 41.001C439.781 41.001 439.099 40.7824 438.636 40.3452C438.173 39.8823 437.942 39.188 437.942 38.2622C437.942 37.3621 438.173 36.6807 438.636 36.2178C439.099 35.7549 439.781 35.5234 440.681 35.5234C441.606 35.5234 442.288 35.7549 442.725 36.2178C443.188 36.6807 443.419 37.3621 443.419 38.2622ZM434.856 47.4814C434.856 48.3815 434.637 49.063 434.2 49.5259C433.763 49.9631 433.069 50.1816 432.117 50.1816C431.191 50.1816 430.497 49.9631 430.034 49.5259C429.571 49.063 429.34 48.3815 429.34 47.4814C429.34 46.5814 429.571 45.8999 430.034 45.437C430.497 44.9741 431.191 44.7427 432.117 44.7427C433.069 44.7427 433.763 44.9741 434.2 45.437C434.637 45.8999 434.856 46.5814 434.856 47.4814ZM437.71 31.7817L408.085 65.3027L435.049 63.7212L434.393 71.8989L399.368 70.1631L417.228 37.375L400.139 38.3394L402.878 30.0073L437.71 31.7817ZM426.331 56.6621C426.331 57.5879 426.1 58.2822 425.637 58.7451C425.2 59.1823 424.518 59.4009 423.592 59.4009C422.667 59.4009 421.959 59.1823 421.471 58.7451C421.008 58.2822 420.776 57.5879 420.776 56.6621C420.776 55.762 421.008 55.0806 421.471 54.6177C421.959 54.1548 422.667 53.9233 423.592 53.9233C424.518 53.9233 425.2 54.1548 425.637 54.6177C426.1 55.0806 426.331 55.762 426.331 56.6621ZM424.441 34.5977L421.278 33.3633C420.764 36.6035 420.018 39.7409 419.041 42.7754C418.063 45.8099 416.855 48.7673 415.415 51.6475L416.572 53.1904C418.243 50.5674 419.735 47.7 421.046 44.5884C422.358 41.4767 423.489 38.1465 424.441 34.5977ZM489.014 46.3242L484.192 47.6357C484.27 48.1243 484.334 48.6515 484.385 49.2173C484.437 49.7573 484.462 50.3359 484.462 50.9531C484.462 51.8789 484.398 52.7918 484.27 53.6919C484.141 54.592 483.948 55.492 483.691 56.3921L487.548 58.1665L485.581 61.561L482.534 59.4009C481.556 61.4839 480.296 63.2454 478.753 64.6855C477.21 66.1257 475.385 67.27 473.276 68.1187L474.356 72.709L470.807 73.5962L470.113 69.083C469.341 69.2116 468.66 69.3016 468.068 69.353C467.503 69.4302 467.014 69.4688 466.603 69.4688C465.06 69.4688 463.542 69.2759 462.051 68.8901C460.585 68.5044 459.171 67.9001 457.808 67.0771L454.953 71.5132L451.906 69.7388L455.146 65.1099C454.117 64.2612 453.204 63.3097 452.407 62.2554C451.636 61.201 450.98 60.0566 450.44 58.8223L445.618 60.3267L444.924 57.0479L449.321 56.0835C449.09 55.132 448.923 54.2191 448.82 53.3447C448.717 52.4704 448.666 51.6732 448.666 50.9531C448.666 50.1559 448.704 49.3844 448.781 48.6387C448.884 47.8672 449.038 47.1343 449.244 46.4399L444.924 45.0513L445.811 41.7339L450.247 43.5854C450.864 42.0168 451.661 40.5895 452.639 39.3037C453.642 38.0179 454.812 36.8864 456.149 35.9092L453.564 31.8589L456.535 29.8145L459.081 34.1348C460.264 33.569 461.472 33.1447 462.707 32.8618C463.967 32.5789 465.265 32.4375 466.603 32.4375C467.94 32.4375 469.2 32.5789 470.383 32.8618C471.591 33.119 472.749 33.5047 473.854 34.019L475.899 30.3545L478.908 32.0518L476.825 35.7935C478.342 36.8993 479.641 38.1722 480.721 39.6123C481.801 41.0524 482.701 42.6725 483.421 44.4727L488.127 42.3896L489.014 46.3242ZM473.662 50.9531C473.662 49.333 473.507 47.8415 473.199 46.4785C472.89 45.1156 472.389 43.8683 471.694 42.7368C470.871 41.3739 469.894 40.3581 468.763 39.6895C467.631 38.9951 466.307 38.6479 464.79 38.6479C463.324 38.6479 462.012 38.9951 460.855 39.6895C459.698 40.3581 458.721 41.3867 457.923 42.7754C457.255 43.9069 456.753 45.167 456.419 46.5557C456.11 47.9186 455.956 49.3844 455.956 50.9531C455.956 52.6247 456.11 54.1548 456.419 55.5435C456.753 56.9064 457.242 58.1408 457.885 59.2466C458.682 60.6353 459.659 61.6639 460.816 62.3325C461.974 63.0011 463.298 63.3354 464.79 63.3354C466.333 63.3354 467.683 63.0011 468.84 62.3325C469.997 61.6639 470.961 60.6353 471.733 59.2466C472.35 58.1408 472.826 56.9064 473.16 55.5435C473.494 54.1548 473.662 52.6247 473.662 50.9531ZM536.306 65.4956L521.455 68.1187C521.661 60.2495 521.802 54.8877 521.879 52.0332C521.957 49.153 521.995 47.3529 521.995 46.6328C521.995 44.2412 521.609 42.4539 520.838 41.271C520.066 40.0623 518.896 39.458 517.328 39.458C515.862 39.458 514.319 40.1266 512.699 41.4639C511.104 42.7754 509.433 44.7555 507.684 47.4043L506.565 67.3857L499.583 68.3115L495.456 32.939L508.648 30.1616L508.07 41.271C509.973 38.7251 511.992 36.8092 514.126 35.5234C516.26 34.2119 518.498 33.5562 520.838 33.5562C523.924 33.5562 526.444 34.7134 528.398 37.0278C530.379 39.3423 531.832 42.8268 532.757 47.4814L536.306 65.4956ZM529.941 50.3745C529.941 49.5773 529.736 48.973 529.324 48.5615C528.913 48.1243 528.296 47.9058 527.473 47.9058C526.65 47.9058 526.02 48.1243 525.583 48.5615C525.171 48.973 524.965 49.5773 524.965 50.3745C524.965 51.2231 525.171 51.866 525.583 52.3032C526.02 52.7147 526.65 52.9204 527.473 52.9204C528.296 52.9204 528.913 52.7147 529.324 52.3032C529.736 51.866 529.941 51.2231 529.941 50.3745ZM531.369 59.7866C531.369 58.9123 531.047 58.1794 530.404 57.5879C529.761 56.9707 529.016 56.6621 528.167 56.6621C527.087 56.6621 526.277 56.9321 525.737 57.4722C525.222 57.9865 524.965 58.758 524.965 59.7866C524.965 60.841 525.222 61.6382 525.737 62.1782C526.277 62.6925 527.087 62.9497 528.167 62.9497C529.016 62.9497 529.761 62.654 530.404 62.0625C531.047 61.4453 531.369 60.6867 531.369 59.7866Z" fill="#4ABFD1"/>
</svg>
